<svg id="Calque_1" data-name="Calque 1" xmlns="http://www.w3.org/2000/svg" viewBox="0 0 1440 1024"><defs><style>.cls-1{fill:#fff;}</style></defs><title>logo_prendre_en_main</title><path class="cls-1" d="M281,1513V489H1721V1513Zm523.41-488c-1.62,2.09-2.64,3.86-4.07,5.18-12.94,11.95-28.69,16.82-45.82,16.27-23.8-.76-45.35-9.5-65.94-20.84-21.3-11.73-40.84-26-59.37-41.67A889,889,0,0,1,552,910.81c-20.55-22.11-39.81-45.33-55-71.6-8.57-14.82-16.89-30-18.8-47.26-1.59-14.32-1.43-28.84-1.82-43.27-.66-24.69-2.65-49.25-9.84-73-2.6-8.57-7-16.83-11.77-24.46-5.64-9-16.18-11.43-25.88-7.24-9.41,4.07-13.9,12.51-17.78,21.2-7.29,16.35-9.74,33.92-10.77,51.49-2.29,39.11,2.74,77.18,17.62,113.81a575.46,575.46,0,0,0,38.24,76.93,669.84,669.84,0,0,0,50.35,73.26,486,486,0,0,0,77.68,78.57c33.62,27,66,55.3,95,87.39,32.37,35.89,58.45,75.55,73.44,121.87A266.91,266.91,0,0,1,765.93,1352c0,2.76,0,5.53,0,8.61,21.31-5.2,42-10.15,62.55-15.3,23.67-5.93,47.27-12.13,70.94-18.05,31.92-8,63.89-15.78,95.83-23.71,6.62-1.65,6.45-1.73,5.51-8.7-3.88-29-8.34-58-11.27-87.12-2.89-28.65-4.5-57.46-.47-86.22,1.58-11.25,3.9-22.22,10.8-31.73a7.75,7.75,0,0,0,.68-6.48c-5.36-12.3-10.34-24.86-16.89-36.53-12.89-23-29.67-43-49.32-60.63-21.17-19-44.66-34.5-70.79-45.45a558.25,558.25,0,0,0-55.37-19.34c-26.7-8-53.73-14.92-80.6-22.39-6.22-1.73-12.41-3.62-18.47-5.83a6.19,6.19,0,0,1-3.22-4c-1.65-8.3-7.15-11.1-14.59-7.11-13.94,7.47-21,23.34-18.13,38.81,3,16,12,28.31,23,39.3,23,22.92,51,38.38,80,52.08C785.31,1016.44,794.55,1020.49,804.41,1025Zm432.52,337.51c.13-2.17.25-3.3.25-4.44.1-26.75,2.9-53.21,11.06-78.72a371,371,0,0,1,18.21-47.24c13-27.16,30.31-51.63,50-74.48a599.39,599.39,0,0,1,63.15-62.71c17.71-15.26,35.8-30.07,53.65-45.17,27.78-23.5,51.71-50.59,73.44-79.67,17.09-22.88,33.24-46.43,46.64-71.66,10.57-19.91,20.52-40.18,29.94-60.67,11.05-24,17-49.55,19.35-75.84,1.81-20.6,1.68-41.21-1.58-61.74-2.28-14.35-5.3-28.45-13-41-4.43-7.17-9.84-13.22-19.11-14.33-11.91-1.42-19.17,4.81-24.49,14.29-8.39,14.93-12.11,31.41-13.73,48.12-2.24,23.17-4,46.46-4.18,69.71-.13,20.38-6.18,38.51-15.44,56-12.8,24.21-29.18,46-47.36,66.25-36.08,40.24-74.76,77.79-118.78,109.46-22.37,16.09-46.05,29.8-73.06,36.56-17.58,4.4-35.24,5.28-52.37-2.23-7.9-3.46-15-8.07-20.17-15.75,1.9-1,3.33-1.81,4.8-2.52,17.15-8.29,34.63-16,51.38-25,22.43-12.1,43.39-26.42,59.78-46.44,10-12.2,16.57-25.56,15.08-42-1.13-12.44-10.29-25.08-20.8-28-6-1.66-10.85.16-11.13,5.51-.32,6-3.7,7.07-8.14,8.07-1.93.43-3.75,1.34-5.67,1.88-24.3,6.75-48.7,13.15-72.87,20.31-21.59,6.39-43.38,12.47-64.23,20.83a294.13,294.13,0,0,0-49.19,25.71,239.93,239.93,0,0,0-58.49,53.63,232.1,232.1,0,0,0-37.37,67.64c-.47,1.35.38,3.39,1.09,4.89,2.06,4.31,5,8.29,6.46,12.78,7.44,23,7.7,46.92,6.35,70.7-1.4,24.58-3.82,49.11-6.46,73.59-1.76,16.36-4.49,32.64-7.2,48.88-1,6.23-1.14,6.88,4.89,8.08,1,.2,2,.35,2.94.59q40.65,10.07,81.3,20.17c24.8,6.2,49.57,12.5,74.36,18.74,15.13,3.8,30.25,7.61,45.4,11.32C1219.76,1358.66,1228,1360.44,1236.93,1362.48Zm123.88-446.57,1.25.52c1.28-1.43,2.54-2.89,3.85-4.3,21.39-23,41.4-47.06,56.93-74.52,6.9-12.21,12.78-24.81,14.08-39.06.74-8.12,1.84-16.22,2.3-24.35,1.92-33.73,3.45-67.45,10.66-100.68,2.9-13.36-8.51-25-22.23-24.45-12.55.55-20.48,8.56-26.91,18.24-12.25,18.45-16.19,39.68-18.35,61-3.39,33.43-5,67-8.29,100.5-2,21-5.53,41.85-8.62,62.74C1364.27,899.73,1362.39,907.8,1360.81,915.91ZM646.73,955.47c-3.2-19.41-6.85-37.18-9-55.12-4-34-7.67-68.14-10.35-102.3-1.83-23.41-2.33-46.91-9.42-69.54-4.57-14.59-10.63-28.52-23.92-37.39-10.13-6.76-20.24-7.45-29.73.93-7.15,6.32-7.43,14.69-6,23.48,2.59,16.24,5.62,32.46,7.24,48.81,2.1,21.18,3.26,42.47,4.33,63.73A93,93,0,0,0,585,874.9q16.28,24.95,34.29,48.76C627.46,934.45,637,944.23,646.73,955.47Zm782.85-42.21a20.56,20.56,0,0,0,2.93-2.09c19.93-21.77,39-44.2,54.5-69.45,7.73-12.61,15.58-25.42,17.63-40.27,2.28-16.45,3.2-33.11,4.39-49.7,1.88-26.21,3-52.48,9.33-78.16,2.58-10.42-1.51-20.13-9.43-25.26-10.19-6.6-23.33-2.86-32.7,6.81-10.14,10.47-15.25,23.56-19.12,37.23-5.66,20-6.62,40.67-7.78,61.23C1446.31,806.94,1441,860,1429.57,913.26Zm-855.74-4.47,1.24-.65c-.24-1.45-.44-2.91-.73-4.36-2-10.08-4.47-20.1-6.07-30.26-2.29-14.61-4.41-29.28-5.82-44-2.78-29.13-5.37-58.28-7.37-87.47-1.57-23-3.48-45.75-12-67.41-4.22-10.77-10-20.5-19.29-27.79-8.62-6.74-19.24-7.83-27.87-2.63-8.25,5-11.39,14.1-9.41,25.33,2.62,14.88,5.52,29.76,7,44.77,2.07,21,3.26,42.12,4.21,63.22a110.51,110.51,0,0,0,14.67,51.15c12.2,21.16,26.81,40.59,42.72,59.07C561.26,894.87,567.6,901.79,573.83,908.79Z" transform="translate(-281 -489)"/><path d="M804.41,1025c-9.86-4.48-19.1-8.53-28.22-12.83-29.06-13.7-57-29.16-80-52.08-11-11-20-23.32-23-39.3-2.89-15.47,4.19-31.35,18.13-38.81,7.44-4,12.94-1.18,14.59,7.11a6.19,6.19,0,0,0,3.22,4c6.06,2.21,12.25,4.1,18.47,5.83,26.87,7.46,53.9,14.37,80.6,22.39a558.25,558.25,0,0,1,55.37,19.34c26.13,11,49.62,26.45,70.79,45.45,19.65,17.64,36.43,37.64,49.32,60.63,6.54,11.67,11.53,24.23,16.89,36.53a7.75,7.75,0,0,1-.68,6.48c-6.9,9.52-9.22,20.48-10.8,31.73-4,28.76-2.42,57.57.47,86.22,2.93,29.12,7.39,58.09,11.27,87.12.93,7,1.11,7.06-5.51,8.7-31.94,7.93-63.9,15.73-95.83,23.71-23.67,5.92-47.27,12.13-70.94,18.05-20.59,5.16-41.24,10.1-62.55,15.3,0-3.08,0-5.85,0-8.61a266.91,266.91,0,0,0-13.25-83.43c-15-46.32-41.07-86-73.44-121.87-28.94-32.1-61.36-60.43-95-87.39a486,486,0,0,1-77.68-78.57,669.84,669.84,0,0,1-50.35-73.26A575.46,575.46,0,0,1,418,830.52c-14.88-36.62-19.91-74.7-17.62-113.81,1-17.57,3.47-35.14,10.77-51.49,3.88-8.69,8.36-17.13,17.78-21.2,9.7-4.2,20.24-1.74,25.88,7.24,4.79,7.63,9.17,15.88,11.77,24.46,7.19,23.71,9.18,48.28,9.84,73,.39,14.44.23,29,1.82,43.27,1.91,17.26,10.24,32.43,18.8,47.26,15.18,26.27,34.44,49.5,55,71.6a889,889,0,0,0,77.17,73.09c18.53,15.68,38.07,29.94,59.37,41.67,20.59,11.34,42.15,20.09,65.94,20.84,17.14.55,32.89-4.32,45.82-16.27C801.76,1028.83,802.78,1027.06,804.41,1025Z" transform="translate(-281 -489)"/><path d="M1236.93,1362.48c-8.91-2-17.16-3.82-25.36-5.82-15.15-3.7-30.28-7.51-45.4-11.32-24.79-6.23-49.56-12.54-74.36-18.74q-40.63-10.16-81.3-20.17c-1-.24-2-.39-2.94-.59-6-1.21-5.93-1.85-4.89-8.08,2.71-16.24,5.44-32.52,7.2-48.88,2.64-24.48,5.06-49,6.46-73.59,1.35-23.78,1.09-47.65-6.35-70.7-1.45-4.49-4.4-8.47-6.46-12.78-.71-1.49-1.57-3.54-1.09-4.89a232.1,232.1,0,0,1,37.37-67.64,239.93,239.93,0,0,1,58.49-53.63,294.13,294.13,0,0,1,49.19-25.71c20.85-8.35,42.65-14.44,64.23-20.83,24.18-7.16,48.58-13.55,72.87-20.31,1.92-.53,3.74-1.44,5.67-1.88,4.44-1,7.82-2.09,8.14-8.07.29-5.35,5.09-7.17,11.13-5.51,10.51,2.88,19.67,15.52,20.8,28,1.49,16.41-5.1,29.78-15.08,42-16.38,20-37.35,34.34-59.78,46.44-16.75,9-34.23,16.71-51.38,25-1.47.71-2.9,1.52-4.8,2.52,5.17,7.68,12.27,12.29,20.17,15.75,17.14,7.51,34.79,6.63,52.37,2.23,27-6.76,50.69-20.47,73.06-36.56,44-31.66,82.7-69.21,118.78-109.46,18.18-20.28,34.56-42,47.36-66.25,9.26-17.52,15.31-35.65,15.44-56,.15-23.25,1.94-46.55,4.18-69.71,1.61-16.71,5.34-33.2,13.73-48.12,5.33-9.47,12.58-15.71,24.49-14.29,9.27,1.11,14.68,7.16,19.11,14.33,7.74,12.54,10.75,26.64,13,41,3.27,20.53,3.4,41.14,1.58,61.74-2.31,26.29-8.3,51.82-19.35,75.84-9.42,20.48-19.37,40.75-29.94,60.67-13.4,25.23-29.55,48.79-46.64,71.66-21.73,29.08-45.65,56.17-73.44,79.67-17.85,15.1-35.94,29.91-53.65,45.17a599.39,599.39,0,0,0-63.15,62.71c-19.68,22.85-37,47.33-50,74.48a371,371,0,0,0-18.21,47.24c-8.16,25.52-11,52-11.06,78.72C1237.17,1359.18,1237.05,1360.31,1236.93,1362.48Z" transform="translate(-281 -489)"/><path d="M1360.81,915.91c1.58-8.11,3.47-16.18,4.67-24.35,3.09-20.88,6.58-41.74,8.62-62.74,3.25-33.45,4.9-67.06,8.29-100.5,2.16-21.35,6.1-42.57,18.35-61,6.43-9.68,14.36-17.69,26.91-18.24,13.72-.6,25.13,11.09,22.23,24.45-7.21,33.23-8.75,66.95-10.66,100.68-.46,8.13-1.56,16.23-2.3,24.35-1.3,14.25-7.17,26.85-14.08,39.06-15.53,27.47-35.54,51.53-56.93,74.52-1.31,1.41-2.57,2.87-3.85,4.3Z" transform="translate(-281 -489)"/><path d="M646.73,955.47c-9.77-11.24-19.26-21-27.42-31.81q-18-23.77-34.29-48.76a93,93,0,0,1-15.11-46.84c-1.07-21.27-2.23-42.55-4.33-63.73-1.62-16.35-4.65-32.56-7.24-48.81-1.4-8.79-1.13-17.16,6-23.48,9.49-8.38,19.6-7.69,29.73-.93,13.28,8.86,19.34,22.8,23.92,37.39,7.09,22.63,7.59,46.13,9.42,69.54,2.67,34.16,6.36,68.26,10.35,102.3C639.88,918.29,643.52,936.06,646.73,955.47Z" transform="translate(-281 -489)"/><path d="M1429.57,913.26c11.42-53.29,16.74-106.32,19.76-159.65,1.17-20.57,2.12-41.23,7.78-61.23,3.87-13.67,9-26.76,19.12-37.23,9.37-9.67,22.5-13.41,32.7-6.81,7.92,5.13,12,14.84,9.43,25.26-6.35,25.68-7.45,52-9.33,78.16-1.19,16.59-2.11,33.24-4.39,49.7-2.06,14.85-9.9,27.66-17.63,40.27-15.48,25.25-34.57,47.69-54.5,69.45A20.56,20.56,0,0,1,1429.57,913.26Z" transform="translate(-281 -489)"/><path d="M573.83,908.79c-6.24-7-12.57-13.92-18.69-21-15.91-18.48-30.51-37.91-42.72-59.07a110.51,110.51,0,0,1-14.67-51.15c-1-21.1-2.15-42.21-4.21-63.22-1.48-15-4.38-29.89-7-44.77-2-11.23,1.16-20.35,9.41-25.33,8.62-5.2,19.25-4.11,27.87,2.63,9.33,7.29,15.07,17,19.29,27.79,8.49,21.66,10.4,44.46,12,67.41,2,29.19,4.59,58.34,7.37,87.47,1.4,14.72,3.53,29.39,5.82,44,1.59,10.15,4,20.17,6.07,30.26.29,1.44.49,2.9.73,4.36Z" transform="translate(-281 -489)"/></svg>